<?xml version="1.0" encoding="utf-8"?>
<!-- Generator: Adobe Illustrator 25.2.0, SVG Export Plug-In . SVG Version: 6.00 Build 0)  -->
<svg version="1.1" id="Capa_1" xmlns="http://www.w3.org/2000/svg" xmlns:xlink="http://www.w3.org/1999/xlink" x="0px" y="0px"
	 viewBox="0 0 2055.5241699 1005.5166016" style="enable-background:new 0 0 2055.5241699 1005.5166016;" xml:space="preserve">
<style type="text/css">
	.st0{fill:#830065;}
	.st1{fill:#60646C;}
</style>
<g>
	<g>
		<g>
			<g>
				<g>
					<g transform="matrix(.1488 0 0 .1488 -8.704 -6.964)">
						<g>
							<path class="st0" d="M6662.7070312,1613.9401855H5126.7094727
								c-80.9248047,455.2995605-214.8823242,1234.2978516-281.2724609,1614.958252h652.5043945
								c49.8901367-286.3791504,186.5981445-1071.6628418,247.0952148-1415.3962402h489.4765625
								c205.4545898,0,353.1616211,138.671875,318.984375,376.3391113
								c-32.6054688,188.1694336-111.565918,641.5046387-181.0981445,1039.0571289h652.5043945
								c46.3549805-267.130127,136.7075195-784.8908691,179.1337891-1028.8435059
								c58.140625-330.7696533-116.6723633-586.114502-541.3310547-586.114502"/>
						</g>
						<g>
							<path class="st0" d="M3329.4743652,3036.4074707c-303.2712402-49.890625-246.7023926-412.4802246-246.7023926-412.4802246
								c269.0942383,32.2128906,608.5063477,24.7487793,840.2807617,1.5715332
								c200.7402344-19.6420898,596.7216797-69.5324707,709.8583984-378.3032227
								c111.9589844-306.0209961,26.7133789-553.5091553-342.5546875-622.6486816
								c-271.8442383-50.2833252-524.439209-53.0332031-854.4233398-8.6424561
								c-471.0131836,63.2469482-730.2861328,222.7392578-845.3879395,502.8328857
								c-63.2468262,154.385498-101.3522949,337.8408203-118.2443848,504.4042969
								c-29.8554688,302.8781738,27.105957,580.6147461,406.1950684,610.8635254
								c508.3327637,40.8552246,908.2419434,31.8195801,1331.7214355-34.5698242l131.9936523-188.1696777
								c-401.873291,66.7824707-859.9228516,50.6762695-1012.7368164,25.1418457 M3201.8015137,2136.8078613
								c80.9245605-192.4908447,199.954834-313.4849854,422.6938477-364.5539551
								c98.6022949-22.7845459,182.6699219-22.3918457,300.5214844,3.1427002
								c174.8127441,37.3195801,228.6315918,241.2026367,151.6352539,400.302124
								c-85.6386719,177.5627441-200.3474121,217.2397461-350.4116211,247.8811035
								c-162.6352539,33.7839355-376.7319336,38.4980469-612.4350586,22.3918457
								c16.4992676-98.6025391,57.7473145-237.2744141,87.9958496-309.1638184"/>
						</g>
						<g>
							<path class="st0" d="M9734.7021484,3036.4074707C9431.4316406,2986.5168457,9488,2623.9272461,9488,2623.9272461
								c269.4873047,32.2128906,608.5058594,24.7487793,840.2802734,1.5715332
								c200.7402344-19.6420898,596.7207031-69.5324707,709.4658203-378.3032227
								c111.9589844-306.0209961,27.1054688-553.5091553-342.1621094-622.6486816
								c-272.2373047-50.2833252-524.8320312-53.0332031-854.8164062-8.6424561
								c-471.0126953,63.2469482-729.5009766,222.7392578-844.9951172,502.8328857
								c-63.6396484,154.385498-101.7451172,337.8408203-118.2451172,504.4042969
								c-29.8564453,302.8781738,27.1054688,580.6147461,406.1943359,610.8635254
								c507.9404297,40.8552246,907.8496094,31.8195801,1332.1152344-34.5698242L10747.4375,3011.265625
								c-401.8740234,66.7824707-859.5302734,50.6762695-1012.7373047,25.1418457 M9607.4208984,2136.8078613
								c80.5322266-192.4908447,199.5625-313.4849854,421.9082031-364.5539551
								c98.6025391-22.7845459,183.0625-22.3918457,300.9140625,3.1427002
								c174.8134766,37.3195801,228.2392578,241.2026367,152.0283203,400.302124
								c-86.03125,177.5627441-200.3476562,217.2397461-350.4111328,247.8811035
								c-162.6347656,33.7839355-376.7314453,38.4980469-612.4345703,22.3918457
								C9535.5322266,2347.3691406,9576.7802734,2208.6972656,9607.4208984,2136.8078613"/>
						</g>
						<g>
							<path class="st0" d="M1360.5688477,2152.1286621c34.5697021-197.2049561,104.4949951-311.1280518,318.5919189-350.019043
								c191.7049561-34.9625244,546.4378662-11.7850342,754.6422119,11.392334l139.8503418-199.9545898
								c-315.4489746-22.784668-848.1376953-48.7119141-1163.9797363-2.75
								c-450.192627,65.2111816-633.6480713,157.135376-684.717041,445.0859375
								c-30.2485352,172.4558105-166.1705933,951.8469238-204.6687622,1173.0151367h652.5044556
								C1217.5758057,2971.9821777,1328.7490234,2334.4057617,1360.5688477,2152.1286621"/>
						</g>
						<g>
							<path class="st0" d="M8402.9804688,624.3805542c-370.8393555,260.0588989-496.5478516,579.0435181-564.9018555,971.0961304
								l-276.5581055,1581.9598389c-62.0683594,359.8395996-89.5673828,547.6162109-150.8500977,724.3935547
								c-49.1044922,148.1000977-210.5610352,365.7324219-479.2626953,369.2680664l-117.4584961,167.3491211
								c346.8764648,16.8920898,624.2202148-83.2817383,820.246582-220.3823242
								c370.8393555-259.6660156,507.546875-631.2912598,576.293457-1022.5581055
								c4.7138672-26.7128906,125.3154297-719.2868652,183.0625-1047.3066406
								c42.0332031-232.953125,164.2070312-360.6257324,421.515625-364.1611328l119.4228516-170.098877h-447.8359375
								c63.6396484-362.9825439,86.4248047-519.7250977,138.671875-670.5748901
								c51.0693359-148.1000366,210.9541016-365.7324219,478.8691406-368.8751831l119.4228516-170.098938
								c-347.6621094-17.2848816-624.6123047,82.8888855-820.6386719,219.9894409"/>
						</g>
					</g>
				</g>
			</g>
		</g>
	</g>
	<g>
		<path class="st1" d="M1356.4602051,667.8370972h44.472168l16.7285156,272.1396484h-32.2324219l-3.671875-78.7451172h-89.3530273
			l-38.3525391,78.7451172h-32.640625L1356.4602051,667.8370972z M1373.1882324,693.1339722l-68.9526367,143.6171875h76.296875
			L1373.1882324,693.1339722z"/>
		<path class="st1" d="M1488.2404785,886.1203003c-1.2241211,6.5283203-2.4477539,13.4638672-2.4477539,19.9921875
			c0,7.7519531,1.6318359,14.2802734,10.199707,14.2802734c5.3041992,0,9.3842773-0.8164062,13.0561523-2.0400391
			l0.8164062,19.5839844c-6.5283203,3.2636719-13.4643555,4.8964844-20.8085938,4.8964844
			c-21.2163086,0-34.2724609-5.7128906-34.2724609-28.5605469c0-9.7919922,2.0400391-19.5839844,4.0800781-28.96875
			l49.7768555-235.8261719h29.7841797L1488.2404785,886.1203003z"/>
		<path class="st1" d="M1612.2687988,939.9767456h-29.3764648l-20.3999023-198.2900391h32.2324219l10.199707,161.9775391h0.8164062
			l79.5605469-161.9775391h31.4165039L1612.2687988,939.9767456z"/>
		<path class="st1" d="M1747.723877,939.9767456h-29.784668l37.128418-175.0341797h-26.9282227l4.8959961-23.2558594h56.7128906
			L1747.723877,939.9767456z M1782.4040527,695.1740112c-9.3837891,0-16.3198242-6.5283203-16.3198242-15.9121094
			c0-12.6484375,13.0556641-24.0722656,24.8881836-24.0722656c9.3837891,0,16.7280273,6.5283203,16.7280273,15.9121094
			C1807.7004395,683.7501831,1795.0524902,695.1740112,1782.4040527,695.1740112z"/>
		<path class="st1" d="M1959.0651855,874.6964722c-4.4882812,21.6240234-6.9355469,42.8398438-8.1601562,65.2802734h-24.8876953
			v-35.0888672c-15.9121094,24.4804688-35.9042969,38.7607422-65.6894531,38.7607422
			c-35.496582,0-44.8803711-26.1123047-44.8803711-57.5283203c0-67.3212891,38.7602539-148.1054688,116.6899414-148.1054688
			c17.5439453,0,39.5761719,2.8554688,54.671875,8.1591797L1959.0651855,874.6964722z M1925.6091309,760.4542847
			c-50.5927734,0-79.1533203,77.1132812-79.1533203,121.5859375c0,15.5039062,4.0800781,39.1679688,26.1123047,39.1679688
			c37.1289062,0,57.1210938-46.1044922,62.8330078-75.4804688l17.5439453-81.1933594
			C1944.376709,761.678894,1935.401123,760.4542847,1925.6091309,760.4542847z"/>
	</g>
</g>
</svg>
