<?xml version="1.0" encoding="UTF-8"?>
<svg viewBox="0 0 719.08 307.94" xmlns="http://www.w3.org/2000/svg">
<defs>
<style>.cls-1{fill:#851765;}.cls-2{fill:#98989a;}</style>
</defs>
<g data-name="Capa 2">
<g data-name="Capa 1">
<path class="cls-1" d="M79,36.84c1.63-3.32.5-7.62-3.16-8.38a13.84,13.84,0,0,0-6.33-.07C64.86,29.48,62.36,32,60.68,36a32.7,32.7,0,0,0-1.86,6.46A48.69,48.69,0,0,0,71.64,42c3.15-.65,5.55-1.47,7.35-5.19M83.47,25.3c7.72,1.45,9.5,6.64,7.17,13S80,45.85,75.77,46.25a85,85,0,0,1-17.33,0S56.89,53.94,63.25,55a81.82,81.82,0,0,0,21.2-.54l-3,4a111.26,111.26,0,0,1-27.7.71c-7.93-.65-9.14-6.47-8.48-12.82a40,40,0,0,1,2.55-10.67c2.45-5.86,7.83-9.24,17.73-10.54a53.56,53.56,0,0,1,17.89.18m133.21,0c7.73,1.45,9.52,6.64,7.18,13S213.21,45.85,209,46.25a84.86,84.86,0,0,1-17.32,0s-1.56,7.69,4.79,8.76a82,82,0,0,0,21.22-.54l-3,4a111,111,0,0,1-27.67.71c-7.93-.65-9.14-6.47-8.51-12.82a39.65,39.65,0,0,1,2.59-10.67c2.42-5.86,7.83-9.24,17.69-10.54a53.58,53.58,0,0,1,17.9.18m-4.47,11.54c1.6-3.32.48-7.62-3.17-8.38a13.67,13.67,0,0,0-6.29-.07c-4.68,1.09-7.17,3.59-8.86,7.62a34.14,34.14,0,0,0-1.84,6.46A48.93,48.93,0,0,0,204.89,42c3.13-.65,5.53-1.47,7.32-5.19m-188,.33c-.68,3.71-2.51,16.32-3.48,21.72H7.1C8,54.23,10.59,38,11.35,34.77c1.37-6,4.87-8,14.3-9.31,6.61-1,17.75-.49,24.36,0L47.23,29.6a71,71,0,0,0-16,.22c-4.5.85-6.2,3.23-7,7.35m143.34-.82c-1.16,6.82-3.52,19.32-3.56,19.44C162.22,64,160.62,71.54,152.85,77a27.2,27.2,0,0,1-17.18,4.6l2.19-3.27c5.67,0,9.1-4.61,10.16-7.75a120.57,120.57,0,0,0,3.37-15.2l5.43-30.15c1.82-8.2,3.11-15.18,10.87-20.62C171.82,1.74,178.81,0,185.89,0l-2.47,3.27a11.46,11.46,0,0,0-10.35,6.27c-1.15,2.29-2.43,8.91-3.53,15.62h10.31l-2.44,3.55c-5.54,0-8.9,2.69-9.82,7.64"/>
<path class="cls-1" d="M83.47,25.3a53.56,53.56,0,0,0-17.89-.18c-9.9,1.3-15.28,4.68-17.73,10.54A40,40,0,0,0,45.3,46.33c-.66,6.35.55,12.17,8.48,12.82a111.26,111.26,0,0,0,27.7-.71l3-4a81.82,81.82,0,0,1-21.2.54c-6.36-1.07-4.81-8.76-4.81-8.76a85,85,0,0,0,17.33,0c4.21-.41,12.51-1.46,14.87-7.93s.55-11.57-7.17-13M79,36.84c-1.8,3.72-4.2,4.54-7.35,5.19a48.69,48.69,0,0,1-12.82.44A32.7,32.7,0,0,1,60.68,36c1.68-4,4.17-6.53,8.82-7.62a13.84,13.84,0,0,1,6.33.07c3.66.76,4.79,5.06,3.16,8.38"/>
<path class="cls-1" d="M216.68,25.3a53.58,53.58,0,0,0-17.9-.18c-9.86,1.3-15.26,4.68-17.69,10.54a39.65,39.65,0,0,0-2.59,10.67c-.63,6.35.58,12.17,8.5,12.82a111.07,111.07,0,0,0,27.68-.71l3-4a82,82,0,0,1-21.22.54c-6.35-1.07-4.79-8.76-4.79-8.76a84.87,84.87,0,0,0,17.32,0c4.22-.41,12.49-1.46,14.87-7.93s.55-11.57-7.18-13m-4.47,11.54c-1.79,3.72-4.2,4.54-7.32,5.19a49,49,0,0,1-12.84.44A34.14,34.14,0,0,1,193.89,36c1.7-4,4.18-6.53,8.86-7.62a13.67,13.67,0,0,1,6.29.07c3.65.76,4.77,5.06,3.17,8.38"/>
<path class="cls-1" d="M24.25,37.17c.78-4.12,2.48-6.5,7-7.35a71,71,0,0,1,16-.22L50,25.46c-6.61-.49-17.75-1-24.36,0-9.43,1.35-12.93,3.33-14.3,9.31C10.59,38,8,54.23,7.1,58.89H20.77c1-5.4,2.8-18,3.48-21.72"/>
<path class="cls-1" d="M167.59,36.35c-1.16,6.82-3.52,19.32-3.56,19.44C162.22,64,160.62,71.54,152.85,77a27.2,27.2,0,0,1-17.18,4.6l2.19-3.27c5.67,0,9.1-4.61,10.16-7.75a120.57,120.57,0,0,0,3.37-15.2l5.43-30.15c1.82-8.2,3.11-15.18,10.87-20.62C171.82,1.74,178.81,0,185.89,0l-2.47,3.27a11.46,11.46,0,0,0-10.35,6.27c-1.15,2.29-2.43,8.91-3.53,15.62h10.31l-2.44,3.55c-5.54,0-8.9,2.69-9.82,7.64"/>
<path class="cls-1" d="M132.36,25.12H102c-1.59,9.4-4.62,25.72-5.76,33.77h12.64c.92-6.25,3.93-22.46,5.29-29.61h10.15c4.31,0,7.49,2.92,6.79,7.89-.59,4-2.37,13.41-4,21.72h12.72c1.36-5.69,3.14-17,4-21.52,1.32-6.91-2.63-12.25-11.54-12.25"/>
<path class="cls-2" d="M620.12,243.39h-95l37.42-50.76h95L671,174.46h-95s27.28-36.87,30.32-41c2.62-3.58,6.17-5.66,12.34-5.66h86.88l13.6-18.24H611c-42.77,0-62.65,9.64-82.59,36.37-14,18.68-50.11,67.74-70.64,95.6a59.3,59.3,0,0,1-6.12,7c-5.64,5.17-13.29,6.25-18.31,6.25v6.86H606.7Z"/>
<path class="cls-2" d="M223.13,242.94c-4.64-6.13-98.36-133.3-98.36-133.3s-12.63,0-12.63,0h0L0,261.59H29l27.79-37.71h83.61c.35.47.68.92,1,1.35C161.32,252,181.19,261.61,224,261.61h22.5v-6.86c-5.28-.23-14.4,0-23.33-11.81m-153-37.24L98.5,167.3l28.37,38.4Z"/>
<path class="cls-1" d="m496 116.4v-6.85h-22.5c-42.77 0-62.64 9.64-82.59 36.37s-85.43 115.69-85.43 115.69l34.59 46.33s109.34-148.26 118-160 15.13-21.18 19.63-25.29c5.64-5.16 13.29-6.25 18.31-6.25"/>
<path class="cls-2" d="m236.88 168.52c17 23 36.86 50.07 51.36 69.74 9.36-12.7 22-29.91 34.39-46.64-13.69-18.55-26.63-36.05-33.77-45.62-19.95-26.72-39.83-36.37-82.6-36.37h-12.52z"/>
</g>
</g>
</svg>
