<?xml version="1.0" encoding="utf-8"?>
<!-- Generator: Adobe Illustrator 25.2.0, SVG Export Plug-In . SVG Version: 6.00 Build 0)  -->
<svg version="1.1" id="Capa_1" xmlns="http://www.w3.org/2000/svg" xmlns:xlink="http://www.w3.org/1999/xlink" x="0px" y="0px"
	 viewBox="0 0 2169.6621094 1005.5166016" style="enable-background:new 0 0 2169.6621094 1005.5166016;" xml:space="preserve">
<style type="text/css">
	.st0{fill:#830065;}
	.st1{fill:#60646C;}
</style>
<g>
	<g>
		<g>
			<g>
				<g>
					<g transform="matrix(.1488 0 0 .1488 -8.704 -6.964)">
						<g>
							<path class="st0" d="M6633.5424805,1613.9401855H5097.5449219
								c-80.9248047,455.2995605-214.8823242,1234.2978516-281.2724609,1614.958252h652.5043945
								c49.8901367-286.3791504,186.5981445-1071.6628418,247.0952148-1415.3962402h489.4765625
								c205.4545898,0,353.1616211,138.671875,318.984375,376.3391113
								c-32.6054688,188.1694336-111.565918,641.5046387-181.0981445,1039.0571289h652.5043945
								c46.3549805-267.130127,136.7075195-784.8908691,179.1337891-1028.8435059
								c58.140625-330.7696533-116.6723633-586.114502-541.3310547-586.114502"/>
						</g>
						<g>
							<path class="st0" d="M3300.3098145,3036.4074707c-303.2712402-49.890625-246.7023926-412.4802246-246.7023926-412.4802246
								c269.0942383,32.2128906,608.5063477,24.7487793,840.2807617,1.5715332
								c200.7402344-19.6420898,596.7216797-69.5324707,709.8583984-378.3032227
								c111.9589844-306.0209961,26.7133789-553.5091553-342.5546875-622.6486816
								c-271.8442383-50.2833252-524.439209-53.0332031-854.4233398-8.6424561
								c-471.0131836,63.2469482-730.2861328,222.7392578-845.3879395,502.8328857
								c-63.2468262,154.385498-101.3522949,337.8408203-118.2441406,504.4042969
								c-29.8557129,302.8781738,27.1057129,580.6147461,406.1948242,610.8635254
								c508.3327637,40.8552246,908.2419434,31.8195801,1331.7214355-34.5698242l131.9936523-188.1696777
								c-401.873291,66.7824707-859.9228516,50.6762695-1012.7368164,25.1418457 M3172.6369629,2136.8078613
								c80.9248047-192.4908447,199.954834-313.4849854,422.6940918-364.5539551
								c98.6022949-22.7845459,182.6696777-22.3918457,300.5212402,3.1427002
								c174.8129883,37.3195801,228.6315918,241.2026367,151.635498,400.302124
								c-85.638916,177.5627441-200.3476562,217.2397461-350.4118652,247.8811035
								c-162.6352539,33.7839355-376.7319336,38.4980469-612.4350586,22.3918457
								c16.4992676-98.6025391,57.7473145-237.2744141,87.9958496-309.1638184"/>
						</g>
						<g>
							<path class="st0" d="M9705.5380859,3036.4074707c-303.2714844-49.890625-246.703125-412.4802246-246.703125-412.4802246
								c269.4873047,32.2128906,608.5058594,24.7487793,840.2802734,1.5715332
								c200.7412109-19.6420898,596.7216797-69.5324707,709.4667969-378.3032227
								c111.9589844-306.0209961,27.1054688-553.5091553-342.1630859-622.6486816
								c-272.2363281-50.2833252-524.8320312-53.0332031-854.8164062-8.6424561
								c-471.0126953,63.2469482-729.5,222.7392578-844.9951172,502.8328857
								c-63.6396484,154.385498-101.7451172,337.8408203-118.2441406,504.4042969
								c-29.8564453,302.8781738,27.1044922,580.6147461,406.1943359,610.8635254
								c507.9394531,40.8552246,907.8496094,31.8195801,1332.1142578-34.5698242l131.6005859-188.1696777
								c-401.8730469,66.7824707-859.5302734,50.6762695-1012.7363281,25.1418457 M9578.2568359,2136.8078613
								c80.53125-192.4908447,199.5615234-313.4849854,421.9072266-364.5539551
								c98.6035156-22.7845459,183.0634766-22.3918457,300.9150391,3.1427002
								c174.8125,37.3195801,228.2392578,241.2026367,152.0283203,400.302124
								c-86.03125,177.5627441-200.3476562,217.2397461-350.4121094,247.8811035
								c-162.6347656,33.7839355-376.7314453,38.4980469-612.4345703,22.3918457
								C9506.3681641,2347.3691406,9547.6162109,2208.6972656,9578.2568359,2136.8078613"/>
						</g>
						<g>
							<path class="st0" d="M1331.4042969,2152.1286621c34.5697021-197.2049561,104.4949951-311.1280518,318.5919189-350.019043
								c191.7049561-34.9625244,546.4381104-11.7850342,754.6422119,11.392334l139.8503418-199.9545898
								c-315.4489746-22.784668-848.1376953-48.7119141-1163.9796143-2.75
								c-450.192749,65.2111816-633.6481934,157.135376-684.7171631,445.0859375
								c-30.2485352,172.4558105-166.1705933,951.8469238-204.6687317,1173.0151367h652.5043945
								C1188.4112549,2971.9821777,1299.5844727,2334.4057617,1331.4042969,2152.1286621"/>
						</g>
						<g>
							<path class="st0" d="M8373.8154297,624.3805542c-370.8388672,260.0588989-496.5473633,579.0435181-564.9013672,971.0961304
								L7532.355957,3177.4365234c-62.0683594,359.8395996-89.5673828,547.6162109-150.8500977,724.3935547
								c-49.1044922,148.1000977-210.5610352,365.7324219-479.2626953,369.2680664l-117.4584961,167.3491211
								c346.8764648,16.8920898,624.2202148-83.2817383,820.246582-220.3823242
								c370.8393555-259.6660156,507.546875-631.2912598,576.293457-1022.5581055
								c4.7138672-26.7128906,125.315918-719.2868652,183.0620117-1047.3066406
								c42.0341797-232.953125,164.2070312-360.6257324,421.5166016-364.1611328l119.421875-170.098877h-447.8359375
								c63.6396484-362.9825439,86.4248047-519.7250977,138.6728516-670.5748901
								c51.0683594-148.1000366,210.9541016-365.7324219,478.8691406-368.8751831l119.4228516-170.098938
								c-347.6621094-17.2848816-624.6132812,82.8888855-820.6396484,219.9894409"/>
						</g>
					</g>
				</g>
			</g>
		</g>
	</g>
	<g>
		<path class="st1" d="M1352.1204834,667.8370972h44.472168l16.7285156,272.1396484h-32.2324219l-3.671875-78.7451172h-89.3530273
			l-38.3525391,78.7451172h-32.640625L1352.1204834,667.8370972z M1368.8485107,693.1339722l-68.9526367,143.6171875h76.296875
			L1368.8485107,693.1339722z"/>
		<path class="st1" d="M1500.2264404,939.9767456h-29.3764648l-20.3999023-198.2900391h32.2324219l10.199707,161.9775391h0.8164062
			l79.5605469-161.9775391h31.4165039L1500.2264404,939.9767456z"/>
		<path class="st1" d="M1749.1068115,874.6964722c-4.4882812,21.6240234-6.9360352,42.8398438-8.1601562,65.2802734h-24.8881836
			v-35.0888672c-15.9121094,24.4804688-35.9047852,38.7607422-65.6889648,38.7607422
			c-35.4960938,0-44.8803711-26.1123047-44.8803711-57.5283203c0-67.3212891,38.7602539-148.1054688,116.6894531-148.1054688
			c17.5439453,0,39.5761719,2.8554688,54.6723633,8.1591797L1749.1068115,874.6964722z M1715.6502686,760.4542847
			c-50.5922852,0-79.152832,77.1132812-79.152832,121.5859375c0,15.5039062,4.0800781,39.1679688,26.1123047,39.1679688
			c37.128418,0,57.1206055-46.1044922,62.8325195-75.4804688l17.5444336-81.1933594
			C1734.418335,761.678894,1725.4422607,760.4542847,1715.6502686,760.4542847z"/>
		<path class="st1" d="M1964.9373779,802.0714722l-29.3759766,137.9052734h-29.7841797l29.7841797-138.7216797
			c0.8154297-3.671875,1.2236328-7.34375,1.2236328-11.4238281c0-19.1767578-11.015625-29.3769531-30.1923828-29.3769531
			c-28.9677734,0-48.9604492,32.2324219-53.4487305,51.8173828l-27.3364258,127.7050781h-29.7841797l42.4326172-198.2900391
			h26.1123047l-2.4482422,28.5605469c12.6484375-19.5849609,33.8652344-32.2324219,59.9775391-32.2324219
			c28.9677734,0,44.8798828,15.9121094,44.8798828,44.8798828
			C1966.977417,789.0148315,1966.1619873,795.1349487,1964.9373779,802.0714722z"/>
		<path class="st1" d="M2100.3916016,765.350769h-38.7607422l-25.7042236,120.7695312
			c-1.2236328,6.1201172-2.0400391,11.4238281-2.0400391,16.3203125c0,10.2001953,2.4482422,17.9521484,15.0958252,17.9521484
			c6.9365234,0,12.2402344-1.2246094,18.7685547-3.2646484l-1.2236328,20.8085938
			c-12.6484375,4.4882812-17.1367188,5.3037109-30.600708,5.3037109c-22.4404297,0-33.0488281-9.3837891-33.0488281-31.8242188
			c0-6.9355469,0.8164062-14.2802734,2.4482422-21.2158203l26.5205078-124.8496094h-27.7441406l4.8955078-23.6640625h27.7451172
			l9.7919922-45.6972656l32.6397705-13.0556641l-12.6474609,58.7529297h38.7597656L2100.3916016,765.350769z"/>
	</g>
</g>
</svg>
