<?xml version="1.0" encoding="utf-8"?>
<!-- Generator: Adobe Illustrator 25.2.0, SVG Export Plug-In . SVG Version: 6.00 Build 0)  -->
<svg version="1.1" id="Capa_1" xmlns="http://www.w3.org/2000/svg" xmlns:xlink="http://www.w3.org/1999/xlink" x="0px" y="0px"
	 viewBox="0 0 3807.4099121 1005.5166016" style="enable-background:new 0 0 3807.4099121 1005.5166016;" xml:space="preserve">
<style type="text/css">
	.st0{fill:#830065;}
	.st1{fill:#60646C;}
</style>
<g>
	<g>
		<g>
			<g>
				<g>
					<g transform="matrix(.1488 0 0 .1488 -8.704 -6.964)">
						<g>
							<path class="st0" d="M6722.8862305,1613.9401855H5186.8886719
								c-80.9248047,455.2995605-214.8823242,1234.2978516-281.2724609,1614.958252h652.5043945
								c49.8901367-286.3791504,186.5981445-1071.6628418,247.0952148-1415.3962402h489.4765625
								c205.4545898,0,353.1616211,138.671875,318.984375,376.3391113
								c-32.6054688,188.1694336-111.565918,641.5046387-181.0981445,1039.0571289h652.5039062
								c46.3554688-267.130127,136.7080078-784.8908691,179.1342773-1028.8435059
								c58.1401367-330.7696533-116.6728516-586.114502-541.3310547-586.114502"/>
						</g>
						<g>
							<path class="st0" d="M3389.6533203,3036.4074707c-303.2709961-49.890625-246.7023926-412.4802246-246.7023926-412.4802246
								c269.0942383,32.2128906,608.5063477,24.7487793,840.2810059,1.5715332
								c200.7402344-19.6420898,596.7211914-69.5324707,709.8583984-378.3032227
								c111.9589844-306.0209961,26.7133789-553.5091553-342.5546875-622.6486816
								c-271.8442383-50.2833252-524.439209-53.0332031-854.4233398-8.6424561
								c-471.0131836,63.2469482-730.286377,222.7392578-845.3881836,502.8328857
								c-63.2468262,154.385498-101.3520508,337.8408203-118.2441406,504.4042969
								c-29.8554688,302.8781738,27.105957,580.6147461,406.1948242,610.8635254
								c508.3327637,40.8552246,908.2421875,31.8195801,1331.7216797-34.5698242l131.9936523-188.1696777
								c-401.8735352,66.7824707-859.9230957,50.6762695-1012.7370605,25.1418457 M3261.9807129,2136.8078613
								c80.9245605-192.4908447,199.954834-313.4849854,422.6938477-364.5539551
								c98.6022949-22.7845459,182.6699219-22.3918457,300.5212402,3.1427002
								c174.8129883,37.3195801,228.6318359,241.2026367,151.6357422,400.302124
								c-85.638916,177.5627441-200.3476562,217.2397461-350.4118652,247.8811035
								c-162.6352539,33.7839355-376.7321777,38.4980469-612.4350586,22.3918457
								c16.4992676-98.6025391,57.7473145-237.2744141,87.9958496-309.1638184"/>
						</g>
						<g>
							<path class="st0" d="M9794.8808594,3036.4074707c-303.2705078-49.890625-246.7021484-412.4802246-246.7021484-412.4802246
								c269.4873047,32.2128906,608.5058594,24.7487793,840.2802734,1.5715332
								c200.7412109-19.6420898,596.7216797-69.5324707,709.4667969-378.3032227
								c111.9589844-306.0209961,27.1054688-553.5091553-342.1630859-622.6486816
								c-272.2363281-50.2833252-524.8320312-53.0332031-854.8164062-8.6424561
								c-471.0126953,63.2469482-729.5,222.7392578-844.9951172,502.8328857
								c-63.6396484,154.385498-101.7451172,337.8408203-118.2451172,504.4042969
								c-29.8554688,302.8781738,27.1054688,580.6147461,406.1943359,610.8635254
								c507.9404297,40.8552246,907.8496094,31.8195801,1332.1152344-34.5698242l131.6005859-188.1696777
								c-401.8730469,66.7824707-859.5302734,50.6762695-1012.7373047,25.1418457 M9667.6005859,2136.8078613
								c80.53125-192.4908447,199.5615234-313.4849854,421.9072266-364.5539551
								c98.6025391-22.7845459,183.0634766-22.3918457,300.9150391,3.1427002
								c174.8125,37.3195801,228.2392578,241.2026367,152.0283203,400.302124
								c-86.03125,177.5627441-200.3476562,217.2397461-350.4121094,247.8811035
								c-162.6347656,33.7839355-376.7314453,38.4980469-612.4345703,22.3918457
								C9595.7119141,2347.3691406,9636.9599609,2208.6972656,9667.6005859,2136.8078613"/>
						</g>
						<g>
							<path class="st0" d="M1420.7479248,2152.1286621c34.5698242-197.2049561,104.4949951-311.1280518,318.5919189-350.019043
								c191.7049561-34.9625244,546.4379883-11.7850342,754.642334,11.392334l139.8503418-199.9545898
								c-315.4492188-22.784668-848.1378174-48.7119141-1163.9797363-2.75
								c-450.192688,65.2111816-633.6481323,157.135376-684.7171021,445.0859375
								c-30.2485352,172.4558105-166.1705933,951.8469238-204.6687622,1173.0151367h652.5043945
								C1277.7548828,2971.9821777,1388.9282227,2334.4057617,1420.7479248,2152.1286621"/>
						</g>
						<g>
							<path class="st0" d="M8463.1591797,624.3805542c-370.8388672,260.0588989-496.5473633,579.0435181-564.9013672,971.0961304
								L7621.699707,3177.4365234c-62.0688477,359.8395996-89.5673828,547.6162109-150.8500977,724.3935547
								c-49.1044922,148.1000977-210.5610352,365.7324219-479.2626953,369.2680664l-117.4584961,167.3491211
								c346.8764648,16.8920898,624.2202148-83.2817383,820.246582-220.3823242
								c370.8393555-259.6660156,507.546875-631.2912598,576.2929688-1022.5581055
								c4.7138672-26.7128906,125.3154297-719.2868652,183.0625-1047.3066406
								c42.0341797-232.953125,164.2070312-360.6257324,421.515625-364.1611328l119.4228516-170.098877h-447.8359375
								c63.6396484-362.9825439,86.4248047-519.7250977,138.6728516-670.5748901
								c51.0683594-148.1000366,210.953125-365.7324219,478.8691406-368.8751831l119.421875-170.098938
								c-347.6611328-17.2848816-624.6123047,82.8888855-820.6386719,219.9894409"/>
						</g>
					</g>
				</g>
			</g>
		</g>
	</g>
	<g>
		<path class="st1" d="M1488.223999,939.9767456h-32.6401367l28.1523438-238.2744141h-0.815918l-97.9213867,238.2744141h-39.984375
			l1.2241211-238.2744141h-0.815918l-70.9931641,238.2744141h-32.6401367l86.9047852-272.1396484h46.9208984l-3.2641602,236.6435547
			h0.815918l96.2890625-236.6435547h46.9204102L1488.223999,939.9767456z"/>
		<path class="st1" d="M1575.1234131,851.0314331c-1.6318359,7.7519531-2.4477539,15.5048828-2.4477539,23.2568359
			c0,29.3759766,15.9121094,46.1044922,45.2885742,46.1044922c14.2797852,0,28.1523438-3.2646484,41.6162109-9.3847656
			l2.0400391,23.6650391c-17.5439453,7.7519531-39.5761719,8.9755859-58.7524414,8.9755859
			c-42.4326172,0-60.3847656-28.9677734-60.3847656-66.9130859c0-59.1601562,36.3125-138.7207031,101.1850586-138.7207031
			c24.4804688,0,51.0004883,9.7919922,51.0004883,39.5761719
			C1694.6688232,836.7511597,1624.4920654,851.0314331,1575.1234131,851.0314331z M1638.3641357,759.638855
			c-30.1923828,0-53.8564453,46.1044922-59.1606445,70.5849609c28.9682617,0,86.9052734-8.1601562,86.9052734-46.1044922
			C1666.1087646,766.5744019,1654.2767334,759.638855,1638.3641357,759.638855z"/>
		<path class="st1" d="M1858.680542,874.6964722c-4.4882812,21.2158203-6.9360352,42.8398438-8.1601562,65.2802734h-24.8881836
			v-35.0888672c-15.9121094,24.4804688-35.9047852,38.7607422-65.6889648,38.7607422
			c-35.4960938,0-44.8803711-26.1123047-44.8803711-57.5283203c0-67.3212891,38.7602539-148.1054688,116.6894531-148.1054688
			c9.3837891,0,20.8081055,2.4472656,25.2958984,5.3037109l19.9931641-93.8408203h29.7841797L1858.680542,874.6964722z
			 M1825.223999,760.4542847c-50.5922852,0-79.5610352,79.1533203-79.5610352,121.5859375
			c0,16.3203125,5.3041992,39.1679688,26.5205078,39.1679688c37.128418,0,57.1206055-46.1044922,62.8325195-75.4804688
			l17.1362305-78.7451172C1846.8485107,762.4943237,1834.6082764,760.4542847,1825.223999,760.4542847z"/>
		<path class="st1" d="M1941.0941162,939.9767456H1911.30896l37.1289062-175.0341797h-26.9287109l4.8964844-23.2558594h56.7128906
			L1941.0941162,939.9767456z M1975.7738037,695.1740112c-9.3837891,0-16.3193359-6.5283203-16.3193359-15.9121094
			c0-12.6484375,13.0556641-24.0722656,24.8876953-24.0722656c9.3837891,0,16.7285156,6.5283203,16.7285156,15.9121094
			C2001.0706787,683.7501831,1988.4222412,695.1740112,1975.7738037,695.1740112z"/>
		<path class="st1" d="M2152.4348145,874.6964722c-4.4882812,21.6240234-6.9355469,42.8398438-8.1601562,65.2802734h-24.8876953
			v-35.0888672c-15.9121094,24.4804688-35.9042969,38.7607422-65.6894531,38.7607422
			c-35.4959717,0-44.8797607-26.1123047-44.8797607-57.5283203c0-67.3212891,38.7597656-148.1054688,116.6893311-148.1054688
			c17.5439453,0,39.5761719,2.8554688,54.671875,8.1591797L2152.4348145,874.6964722z M2118.9787598,760.4542847
			c-50.5927734,0-79.1531982,77.1132812-79.1531982,121.5859375c0,15.5039062,4.0800781,39.1679688,26.1121826,39.1679688
			c37.1289062,0,57.1210938-46.1044922,62.8330078-75.4804688l17.5439453-81.1933594
			C2137.7463379,761.678894,2128.770752,760.4542847,2118.9787598,760.4542847z"/>
		<path class="st1" d="M2373.9758301,939.9767456h-70.1767578l57.9365234-272.1396484h74.6650391
			c55.0810547,0,83.2333984,46.9208984,83.2333984,88.9453125
			C2519.6340332,853.8878784,2474.7531738,939.9767456,2373.9758301,939.9767456z M2421.3049316,695.1740112h-33.4570312
			l-46.5126953,217.4667969h38.3525391c71.8085938,0,105.265625-77.9296875,105.265625-150.9619141
			C2484.9533691,725.7745972,2464.9611816,695.1740112,2421.3049316,695.1740112z"/>
		<path class="st1" d="M2575.935791,939.9767456h-29.7851562l37.1289062-175.0341797h-26.9287109l4.8964844-23.2558594h56.7128906
			L2575.935791,939.9767456z M2610.6154785,695.1740112c-9.3837891,0-16.3193359-6.5283203-16.3193359-15.9121094
			c0-12.6484375,13.0556641-24.0722656,24.8876953-24.0722656c9.3837891,0,16.7285156,6.5283203,16.7285156,15.9121094
			C2635.9123535,683.7501831,2623.263916,695.1740112,2610.6154785,695.1740112z"/>
		<path class="st1" d="M2760.348877,767.7990112c-9.7929688-3.671875-26.9287109-7.3447266-37.9453125-7.3447266
			c-22.8476562,0-39.1679688,11.4248047-39.1679688,35.4970703c0,19.9921875,15.5039062,28.9677734,32.640625,37.5361328
			c16.3203125,8.5683594,32.2324219,20.8085938,32.2324219,46.5126953c0,43.65625-39.5771484,63.6484375-77.5214844,63.6484375
			c-13.4638672,0-33.0478516-3.671875-45.6962891-8.5683594l10.2001953-22.0322266
			c11.015625,6.9365234,24.4804688,8.1601562,37.1279297,8.1601562c24.4804688,0,46.1054688-9.7919922,46.1054688-38.3525391
			c0-19.1757812-14.6884766-27.3359375-31.4169922-35.4960938c-15.0957031-7.7519531-31.4160156-20.4003906-31.4160156-48.9609375
			c0-39.5761719,33.0478516-60.3837891,69.7685547-60.3837891c15.9121094,0,29.7841797,2.0400391,45.6962891,6.9355469
			L2760.348877,767.7990112z"/>
		<path class="st1" d="M2891.7229004,765.350769h-38.7607422l-25.7041016,120.7695312
			c-1.2236328,6.1201172-2.0400391,11.4238281-2.0400391,16.3203125c0,10.2001953,2.4482422,17.9521484,15.0957031,17.9521484
			c6.9365234,0,12.2402344-1.2246094,18.7685547-3.2646484l-1.2236328,20.8085938
			c-12.6484375,4.4882812-17.1367188,5.3037109-30.6005859,5.3037109c-22.4404297,0-33.0488281-9.3837891-33.0488281-31.8242188
			c0-6.9355469,0.8164062-14.2802734,2.4482422-21.2158203l26.5205078-124.8496094h-27.7441406l4.8955078-23.6640625h27.7451172
			l9.7919922-45.6972656l32.6396484-13.0556641l-12.6474609,58.7529297h38.7597656L2891.7229004,765.350769z"/>
		<path class="st1" d="M3046.7590332,874.6964722c-4.4873047,21.6240234-6.9355469,42.8398438-8.1601562,65.2802734h-24.8876953
			v-35.0888672c-15.9121094,24.4804688-35.9042969,38.7607422-65.6894531,38.7607422
			c-35.4960938,0-44.8798828-26.1123047-44.8798828-57.5283203c0-67.3212891,38.7597656-148.1054688,116.6894531-148.1054688
			c17.5439453,0,39.5761719,2.8554688,54.6728516,8.1591797L3046.7590332,874.6964722z M3013.3029785,760.4542847
			c-50.5927734,0-79.1533203,77.1132812-79.1533203,121.5859375c0,15.5039062,4.0800781,39.1679688,26.1123047,39.1679688
			c37.1289062,0,57.1210938-46.1044922,62.8330078-75.4804688l17.5439453-81.1933594
			C3032.0715332,761.678894,3023.0949707,760.4542847,3013.3029785,760.4542847z"/>
		<path class="st1" d="M3262.5891113,802.0714722l-29.3759766,137.9052734h-29.7841797l29.7841797-138.7216797
			c0.8164062-3.671875,1.2236328-7.34375,1.2236328-11.4238281c0-19.1767578-11.015625-29.3769531-30.1914062-29.3769531
			c-28.96875,0-48.9609375,32.2324219-53.4492188,51.8173828l-27.3359375,127.7050781h-29.7841797l42.4316406-198.2900391
			h26.1123047l-2.4472656,28.5605469c12.6474609-19.5849609,33.8642578-32.2324219,59.9765625-32.2324219
			c28.9677734,0,44.8798828,15.9121094,44.8798828,44.8798828
			C3264.6291504,789.0148315,3263.8137207,795.1349487,3262.5891113,802.0714722z"/>
		<path class="st1" d="M3438.8410645,766.1671753c-11.015625-4.4882812-23.2558594-4.8964844-35.0878906-4.8964844
			c-51.4091797,0-70.1767578,69.7685547-70.1767578,109.3457031c0,28.1523438,9.7919922,49.7763672,42.0244141,49.7763672
			c11.4238281,0,21.2158203-2.0400391,32.2324219-6.5283203l2.0400391,23.2558594
			c-12.6484375,5.3046875-31.4169922,6.5283203-45.6972656,6.5283203c-44.0644531,0-61.6083984-33.0478516-61.6083984-71.8085938
			c0-65.6884766,36.3125-133.8251953,107.7128906-133.8251953c14.2802734,0,26.9287109,0,39.5771484,6.1191406
			L3438.8410645,766.1671753z"/>
		<path class="st1" d="M3490.654541,939.9767456h-29.7841797l37.1279297-175.0341797h-26.9277344l4.8955078-23.2558594h56.7128906
			L3490.654541,939.9767456z M3525.3352051,695.1740112c-9.3847656,0-16.3203125-6.5283203-16.3203125-15.9121094
			c0-12.6484375,13.0556641-24.0722656,24.8876953-24.0722656c9.3847656,0,16.7285156,6.5283203,16.7285156,15.9121094
			C3550.6311035,683.7501831,3537.982666,695.1740112,3525.3352051,695.1740112z"/>
		<path class="st1" d="M3701.9953613,874.6964722c-4.4873047,21.6240234-6.9355469,42.8398438-8.1601562,65.2802734h-24.8876953
			v-35.0888672c-15.9121094,24.4804688-35.9042969,38.7607422-65.6884766,38.7607422
			c-35.4970703,0-44.8808594-26.1123047-44.8808594-57.5283203c0-67.3212891,38.7607422-148.1054688,116.6894531-148.1054688
			c17.5439453,0,39.5761719,2.8554688,54.6728516,8.1591797L3701.9953613,874.6964722z M3668.5393066,760.4542847
			c-50.5927734,0-79.1533203,77.1132812-79.1533203,121.5859375c0,15.5039062,4.0800781,39.1679688,26.1123047,39.1679688
			c37.1289062,0,57.1210938-46.1044922,62.8330078-75.4804688l17.5439453-81.1933594
			C3687.3078613,761.678894,3678.3312988,760.4542847,3668.5393066,760.4542847z"/>
	</g>
</g>
</svg>
