<?xml version="1.0" encoding="utf-8"?>
<!-- Generator: Adobe Illustrator 25.2.0, SVG Export Plug-In . SVG Version: 6.00 Build 0)  -->
<svg version="1.1" id="Capa_1" xmlns="http://www.w3.org/2000/svg" xmlns:xlink="http://www.w3.org/1999/xlink" x="0px" y="0px"
	 viewBox="0 0 2676.6472168 1005.5166016" style="enable-background:new 0 0 2676.6472168 1005.5166016;" xml:space="preserve">
<style type="text/css">
	.st0{fill:#830065;}
	.st1{fill:#60646C;}
</style>
<g>
	<g>
		<g>
			<g>
				<g>
					<g transform="matrix(.1488 0 0 .1488 -8.704 -6.964)">
						<g>
							<path class="st0" d="M6705.1772461,1613.9401855H5169.1796875
								c-80.9248047,455.2995605-214.8823242,1234.2978516-281.2719727,1614.958252h652.5039062
								c49.890625-286.3791504,186.5981445-1071.6628418,247.0957031-1415.3962402h489.4760742
								c205.4545898,0,353.1616211,138.671875,318.984375,376.3391113
								c-32.6054688,188.1694336-111.565918,641.5046387-181.0981445,1039.0571289h652.5043945
								c46.3549805-267.130127,136.7080078-784.8908691,179.1342773-1028.8435059
								c58.1401367-330.7696533-116.6728516-586.114502-541.331543-586.114502"/>
						</g>
						<g>
							<path class="st0" d="M3371.9445801,3036.4074707c-303.2712402-49.890625-246.7023926-412.4802246-246.7023926-412.4802246
								c269.0942383,32.2128906,608.5063477,24.7487793,840.2810059,1.5715332
								c200.7399902-19.6420898,596.7214355-69.5324707,709.8586426-378.3032227
								c111.9584961-306.0209961,26.7128906-553.5091553-342.5551758-622.6486816
								c-271.8442383-50.2833252-524.439209-53.0332031-854.4233398-8.6424561
								c-471.0131836,63.2469482-730.2861328,222.7392578-845.3879395,502.8328857
								c-63.2468262,154.385498-101.3520508,337.8408203-118.2441406,504.4042969
								c-29.8557129,302.8781738,27.105957,580.6147461,406.1948242,610.8635254
								c508.3327637,40.8552246,908.2421875,31.8195801,1331.7219238-34.5698242l131.9931641-188.1696777
								c-401.873291,66.7824707-859.9228516,50.6762695-1012.7368164,25.1418457 M3244.2719727,2136.8078613
								c80.9245605-192.4908447,199.9545898-313.4849854,422.6938477-364.5539551
								c98.6022949-22.7845459,182.6696777-22.3918457,300.5212402,3.1427002
								c174.8132324,37.3195801,228.6320801,241.2026367,151.635498,400.302124
								c-85.6386719,177.5627441-200.3476562,217.2397461-350.4118652,247.8811035
								c-162.6350098,33.7839355-376.7319336,38.4980469-612.4348145,22.3918457
								c16.4992676-98.6025391,57.7473145-237.2744141,87.9958496-309.1638184"/>
						</g>
						<g>
							<path class="st0" d="M9777.1728516,3036.4074707c-303.2714844-49.890625-246.703125-412.4802246-246.703125-412.4802246
								c269.4873047,32.2128906,608.5058594,24.7487793,840.28125,1.5715332
								c200.7402344-19.6420898,596.7207031-69.5324707,709.4658203-378.3032227
								c111.9589844-306.0209961,27.1054688-553.5091553-342.1621094-622.6486816
								c-272.2373047-50.2833252-524.8330078-53.0332031-854.8164062-8.6424561
								c-471.0126953,63.2469482-729.5009766,222.7392578-844.9960938,502.8328857
								c-63.6396484,154.385498-101.7441406,337.8408203-118.2441406,504.4042969
								c-29.8564453,302.8781738,27.1054688,580.6147461,406.1943359,610.8635254
								c507.9394531,40.8552246,907.8496094,31.8195801,1332.1142578-34.5698242l131.6015625-188.1696777
								c-401.8740234,66.7824707-859.5302734,50.6762695-1012.7373047,25.1418457 M9649.8916016,2136.8078613
								c80.53125-192.4908447,199.5615234-313.4849854,421.9072266-364.5539551
								c98.6035156-22.7845459,183.0634766-22.3918457,300.9150391,3.1427002
								c174.8125,37.3195801,228.2392578,241.2026367,152.0283203,400.302124
								c-86.03125,177.5627441-200.3476562,217.2397461-350.4121094,247.8811035
								c-162.6347656,33.7839355-376.7314453,38.4980469-612.4345703,22.3918457
								C9578.0029297,2347.3691406,9619.2509766,2208.6972656,9649.8916016,2136.8078613"/>
						</g>
						<g>
							<path class="st0" d="M1403.0391846,2152.1286621c34.5697021-197.2049561,104.4949951-311.1280518,318.5917969-350.019043
								c191.7050781-34.9625244,546.4381104-11.7850342,754.6424561,11.392334l139.8503418-199.9545898
								c-315.4492188-22.784668-848.1379395-48.7119141-1163.9798584-2.75
								c-450.192627,65.2111816-633.6480713,157.135376-684.7171021,445.0859375
								c-30.2485352,172.4558105-166.1705933,951.8469238-204.6687012,1173.0151367h652.5044556
								C1260.0460205,2971.9821777,1371.2193604,2334.4057617,1403.0391846,2152.1286621"/>
						</g>
						<g>
							<path class="st0" d="M8445.4511719,624.3805542c-370.8398438,260.0588989-496.5478516,579.0435181-564.9018555,971.0961304
								l-276.5585938,1581.9598389c-62.0683594,359.8395996-89.5668945,547.6162109-150.8496094,724.3935547
								c-49.1049805,148.1000977-210.5615234,365.7324219-479.2626953,369.2680664l-117.4589844,167.3491211
								c346.8764648,16.8920898,624.2202148-83.2817383,820.246582-220.3823242
								c370.8393555-259.6660156,507.546875-631.2912598,576.2939453-1022.5581055
								c4.7138672-26.7128906,125.3154297-719.2868652,183.0625-1047.3066406
								c42.0332031-232.953125,164.2060547-360.6257324,421.515625-364.1611328l119.421875-170.098877H8529.125
								c63.6386719-362.9825439,86.4238281-519.7250977,138.671875-670.5748901
								c51.0683594-148.1000366,210.9541016-365.7324219,478.8691406-368.8751831l119.4228516-170.098938
								c-347.6621094-17.2848816-624.6132812,82.8888855-820.6386719,219.9894409"/>
						</g>
					</g>
				</g>
			</g>
		</g>
		<g>
			<g>
			</g>
		</g>
	</g>
	<g>
		<path class="st1" d="M1437.4443359,694.7658081h-93.4331055l-19.5839844,91.3935547h86.0888672l-5.7119141,26.5195312h-86.0888672
			l-21.2163086,99.9619141h98.3291016l-5.7124023,27.3359375h-130.5615234l57.9370117-272.1396484h125.6655273
			L1437.4443359,694.7658081z"/>
		<path class="st1" d="M1593.296875,874.6964722c-4.487793,21.6240234-6.9360352,42.8398438-8.1601562,65.2802734h-24.8881836
			v-34.6806641c-13.4638672,24.0722656-35.4960938,38.3525391-63.2407227,38.3525391
			c-28.1523438,0-44.4726562-13.8720703-44.4726562-42.8408203c0-6.9355469,0.8164062-13.8720703,2.4482422-20.3994141
			l29.7841797-138.7216797h29.3764648l-28.9682617,136.2734375c-1.2241211,4.4882812-2.0400391,11.015625-2.0400391,15.5039062
			c0,17.5439453,9.3842773,27.7441406,27.7441406,27.7441406c27.7446289,0,48.9609375-30.5996094,54.2646484-54.2646484
			l26.9282227-125.2568359h29.784668L1593.296875,874.6964722z"/>
		<path class="st1" d="M1760.9819336,767.3908081c-4.4882812-1.2236328-9.3842773-2.0400391-14.6879883-2.0400391
			c-21.2163086,0-41.2084961,21.2158203-48.9609375,55.4882812l-25.2963867,119.1376953h-29.7841797l42.4326172-198.2900391
			h25.2963867l-2.0400391,28.9677734c13.0561523-21.6240234,31.4160156-32.6396484,55.0805664-32.6396484
			c3.671875,0,10.6079102,0.8154297,13.8720703,2.4472656L1760.9819336,767.3908081z"/>
		<path class="st1" d="M1836.0541992,943.6486206c-43.6567383,0-60.7929688-26.5205078-60.7929688-66.9130859
			c0-59.1601562,33.0483398-138.7207031,101.1850586-138.7207031c42.4326172,0,61.2011719,27.7441406,61.2011719,67.3203125
			C1937.6474609,864.0880737,1905.4150391,943.6486206,1836.0541992,943.6486206z M1874.40625,760.4542847
			c-49.3681641,0-68.1367188,77.9296875-68.1367188,117.9140625c0,21.2158203,6.1201172,42.8398438,31.824707,42.8398438
			c23.2558594,0,40.800293-19.1757812,52.2250977-44.8798828c11.4238281-25.7050781,16.3193359-54.2646484,16.3193359-74.6650391
			C1906.6386719,780.0392456,1900.1113281,760.4542847,1874.40625,760.4542847z"/>
		<path class="st1" d="M2198.7646484,939.9767456h-29.7841797l29.3769531-137.9052734
			c0.8154297-3.6728516,1.2236328-7.3447266,1.2236328-11.4248047c0-16.7275391-4.8964844-30.1923828-26.5205078-30.1923828
			c-27.3359375,0-45.2880859,29.3769531-49.7763672,52.2246094l-27.3359375,127.2978516h-29.3769531l29.3769531-137.9052734
			c1.2236328-4.4882812,1.6318359-8.9765625,1.6318359-13.4648438c0-17.5439453-9.3847656-28.1523438-27.3369141-28.1523438
			c-25.7041016,0-45.6962891,31.8251953-49.7763672,53.8574219l-26.9287109,125.6650391h-29.7841797l42.4326172-198.2900391
			h26.1123047l-2.4482422,28.1523438c11.4248047-18.3603516,34.2724609-31.8242188,55.8974609-31.8242188
			c24.0722656,0,38.3515625,8.5673828,43.2480469,31.0078125c13.0566406-20.8085938,35.4960938-31.0078125,59.9765625-31.0078125
			c37.9443359,0,46.9208984,28.9677734,39.5771484,62.4238281L2198.7646484,939.9767456z"/>
		<path class="st1" d="M2297.9052734,851.0314331c-1.6318359,7.7519531-2.4472656,15.5048828-2.4472656,23.2568359
			c0,29.3759766,15.9121094,46.1044922,45.2880859,46.1044922c14.2802734,0,28.1523438-3.2646484,41.6162109-9.3847656
			l2.0400391,23.6650391c-17.5439453,7.7519531-39.5761719,8.9755859-58.7519531,8.9755859
			c-42.4326172,0-60.3847656-28.9677734-60.3847656-66.9130859c0-59.1601562,36.3125-138.7207031,101.1845703-138.7207031
			c24.4804688,0,51.0009766,9.7919922,51.0009766,39.5761719
			C2417.4511719,836.7511597,2347.2744141,851.0314331,2297.9052734,851.0314331z M2361.1464844,759.638855
			c-30.1923828,0-53.8564453,46.1044922-59.1611328,70.5849609c28.96875,0,86.9052734-8.1601562,86.9052734-46.1044922
			C2388.890625,766.5744019,2377.0585938,759.638855,2361.1464844,759.638855z"/>
		<path class="st1" d="M2581.4628906,874.6964722c-4.4882812,21.2158203-6.9355469,42.8398438-8.1601562,65.2802734h-24.8876953
			v-35.0888672c-15.9121094,24.4804688-35.9042969,38.7607422-65.6894531,38.7607422
			c-35.4960938,0-44.8798828-26.1123047-44.8798828-57.5283203c0-67.3212891,38.7597656-148.1054688,116.6894531-148.1054688
			c9.3837891,0,20.8076172,2.4472656,25.2958984,5.3037109l19.9921875-93.8408203h29.7841797L2581.4628906,874.6964722z
			 M2548.0068359,760.4542847c-50.5927734,0-79.5615234,79.1533203-79.5615234,121.5859375
			c0,16.3203125,5.3046875,39.1679688,26.5205078,39.1679688c37.1289062,0,57.1210938-46.1044922,62.8330078-75.4804688
			l17.1357422-78.7451172C2569.6308594,762.4943237,2557.390625,760.4542847,2548.0068359,760.4542847z"/>
	</g>
</g>
</svg>
