<?xml version="1.0" encoding="utf-8"?>
<!-- Generator: Adobe Illustrator 25.2.0, SVG Export Plug-In . SVG Version: 6.00 Build 0)  -->
<svg version="1.1" id="Capa_1" xmlns="http://www.w3.org/2000/svg" xmlns:xlink="http://www.w3.org/1999/xlink" x="0px" y="0px"
	 viewBox="0 0 2533.3112793 1053.2952881" style="enable-background:new 0 0 2533.3112793 1053.2952881;" xml:space="preserve">
<style type="text/css">
	.st0{fill:#830065;}
	.st1{fill:#60646C;}
</style>
<g>
	<g>
		<g>
			<g>
				<g>
					<g transform="matrix(.1488 0 0 .1488 -8.704 -6.964)">
						<g>
							<path class="st0" d="M6517.4760742,1545.4349365H4981.4785156
								c-80.9248047,455.2994385-214.8828125,1234.2977295-281.2724609,1614.9581299h652.5043945
								c49.8901367-286.3791504,186.5981445-1071.6625977,247.0952148-1415.3961182h489.4765625
								c205.4545898,0,353.1616211,138.671875,318.984375,376.3389893
								c-32.6054688,188.1696777-111.565918,641.5048828-181.0981445,1039.0571289h652.5039062
								c46.3554688-267.1298828,136.7080078-784.890625,179.1342773-1028.8432617
								c58.1401367-330.7697754-116.6728516-586.114624-541.3310547-586.114624"/>
						</g>
						<g>
							<path class="st0" d="M3184.2431641,2967.9020996c-303.2709961-49.8903809-246.7023926-412.4802246-246.7023926-412.4802246
								c269.0942383,32.2128906,608.5063477,24.7487793,840.2810059,1.5715332
								c200.7402344-19.6418457,596.7211914-69.5324707,709.8583984-378.3032227
								c111.9589844-306.0209961,26.7133789-553.5090332-342.5546875-622.6485596
								c-271.8442383-50.2833252-524.439209-53.0332031-854.4233398-8.6425781
								c-471.0131836,63.2470703-730.286377,222.7393799-845.3881836,502.8331299
								c-63.2468262,154.3852539-101.3520508,337.8408203-118.2441406,504.4040527
								c-29.8554688,302.8781738,27.105957,580.6149902,406.1948242,610.8635254
								c508.3327637,40.8552246,908.2421875,31.8198242,1331.7216797-34.5698242l131.9936523-188.1694336
								c-401.8735352,66.7824707-859.9230957,50.6760254-1012.7370605,25.1416016 M3056.5705566,2068.3024902
								c80.9245605-192.4907227,199.954834-313.4848633,422.6938477-364.553833
								c98.6022949-22.7845459,182.6699219-22.3918457,300.5212402,3.1427002
								c174.8129883,37.3195801,228.6320801,241.2026367,151.635498,400.3022461
								c-85.6386719,177.5627441-200.3474121,217.239502-350.4118652,247.8808594
								c-162.6350098,33.7839355-376.7319336,38.4980469-612.4348145,22.3918457
								c16.4992676-98.6022949,57.7473145-237.2744141,87.9958496-309.1638184"/>
						</g>
						<g>
							<path class="st0" d="M9589.4707031,2967.9020996c-303.2705078-49.8903809-246.7021484-412.4802246-246.7021484-412.4802246
								c269.4873047,32.2128906,608.5058594,24.7487793,840.2802734,1.5715332
								c200.7412109-19.6418457,596.7216797-69.5324707,709.4667969-378.3032227
								c111.9589844-306.0209961,27.1054688-553.5090332-342.1630859-622.6485596
								c-272.2363281-50.2833252-524.8320312-53.0332031-854.8164062-8.6425781
								c-471.0126953,63.2470703-729.5,222.7393799-844.9951172,502.8331299
								c-63.6396484,154.3852539-101.7451172,337.8408203-118.2451172,504.4040527
								c-29.8554688,302.8781738,27.1054688,580.6149902,406.1943359,610.8635254
								c507.9404297,40.8552246,907.8496094,31.8198242,1332.1152344-34.5698242l131.6005859-188.1694336
								c-401.8730469,66.7824707-859.5302734,50.6760254-1012.7373047,25.1416016 M9462.1904297,2068.3024902
								c80.53125-192.4907227,199.5615234-313.4848633,421.9072266-364.553833
								c98.6025391-22.7845459,183.0634766-22.3918457,300.9150391,3.1427002
								c174.8125,37.3195801,228.2392578,241.2026367,152.0283203,400.3022461
								c-86.03125,177.5627441-200.3476562,217.239502-350.4121094,247.8808594
								c-162.6347656,33.7839355-376.7314453,38.4980469-612.4345703,22.3918457
								C9390.3017578,2278.8640137,9431.5498047,2140.1918945,9462.1904297,2068.3024902"/>
						</g>
						<g>
							<path class="st0" d="M1215.3377686,2083.623291c34.5698242-197.204834,104.4949951-311.1279297,318.5919189-350.0189209
								c191.7049561-34.9625244,546.4379883-11.7851562,754.642334,11.392334l139.8503418-199.9547119
								c-315.4492188-22.7845459-848.1378174-48.7119141-1163.9797363-2.7498779
								c-450.192688,65.2111816-633.6481323,157.1352539-684.7171631,445.0858154
								c-30.2485352,172.4560547-166.1705627,951.847168-204.6687012,1173.0151367h652.5043945
								c44.7835693-256.9162598,155.9569092-894.4926758,187.7766113-1076.7695312"/>
						</g>
						<g>
							<path class="st0" d="M8257.7490234,555.8752441c-370.8388672,260.05896-496.5473633,579.0435791-564.9013672,971.0961914
								l-276.5581055,1581.9597168c-62.0688477,359.8398438-89.5673828,547.6164551-150.8500977,724.3935547
								c-49.1044922,148.1000977-210.5610352,365.7324219-479.2626953,369.2680664l-117.4584961,167.3491211
								c346.8764648,16.8920898,624.2202148-83.2817383,820.246582-220.3823242
								c370.8393555-259.6660156,507.5463867-631.2910156,576.293457-1022.5578613
								c4.7138672-26.7131348,125.3154297-719.2871094,183.0620117-1047.3068848
								c42.0341797-232.9530029,164.2070312-360.6256104,421.515625-364.1610107l119.4228516-170.098877h-447.8359375
								c63.6396484-362.9825439,86.4248047-519.7250977,138.6728516-670.5749512
								c51.0683594-148.1000366,210.953125-365.7324219,478.8691406-368.8751221l119.421875-170.0989685
								c-347.6611328-17.2848816-624.6123047,82.8888855-820.6386719,219.9894104"/>
						</g>
					</g>
				</g>
			</g>
		</g>
	</g>
	<g>
		<path class="st1" d="M1263.4489746,929.7831421h-31.824707l57.9370117-272.1396484h31.8242188L1263.4489746,929.7831421z"/>
		<path class="st1" d="M1501.7219238,791.8778687l-29.3764648,137.9052734h-29.7841797l29.7841797-138.7216797
			c0.815918-3.671875,1.2241211-7.34375,1.2241211-11.4238281c0-19.1767578-11.0161133-29.3769531-30.1923828-29.3769531
			c-28.9682617,0-48.9604492,32.2324219-53.4487305,51.8173828l-27.3364258,127.7050781h-29.7841797l42.4326172-198.2900391
			h26.1123047l-2.4482422,28.5605469c12.6484375-19.5849609,33.8647461-32.2324219,59.9770508-32.2324219
			c28.9682617,0,44.8803711,15.9121094,44.8803711,44.8798828
			C1503.7619629,778.821228,1502.9460449,784.9413452,1501.7219238,791.8778687z"/>
		<path class="st1" d="M1637.1760254,755.1571655h-38.7602539l-25.7045898,120.7695312
			c-1.2236328,6.1201172-2.0400391,11.4238281-2.0400391,16.3203125c0,10.2001953,2.4482422,17.9521484,15.0961914,17.9521484
			c6.9365234,0,12.2402344-1.2246094,18.7685547-3.2646484l-1.2241211,20.8085938
			c-12.6479492,4.4882812-17.1362305,5.3037109-30.6005859,5.3037109c-22.4399414,0-33.0483398-9.3837891-33.0483398-31.8242188
			c0-6.9355469,0.8164062-14.2802734,2.4482422-21.2158203l26.5200195-124.8496094h-27.7441406l4.8959961-23.6640625h27.7446289
			l9.7919922-45.6972656l32.6401367-13.0556641l-12.6479492,58.7529297h38.7602539L1637.1760254,755.1571655z"/>
		<path class="st1" d="M1681.2341309,840.8378296c-1.6318359,7.7519531-2.4477539,15.5048828-2.4477539,23.2568359
			c0,29.3759766,15.9121094,46.1044922,45.2885742,46.1044922c14.2797852,0,28.1523438-3.2646484,41.6162109-9.3847656
			l2.0400391,23.6650391c-17.5439453,7.7519531-39.5761719,8.9755859-58.7524414,8.9755859
			c-42.4326172,0-60.3847656-28.9677734-60.3847656-66.9130859c0-59.1601562,36.3125-138.7207031,101.1850586-138.7207031
			c24.4804688,0,51.0004883,9.7919922,51.0004883,39.5761719
			C1800.779541,826.5575562,1730.6027832,840.8378296,1681.2341309,840.8378296z M1744.4748535,749.4452515
			c-30.1923828,0-53.8564453,46.1044922-59.1606445,70.5849609c28.9682617,0,86.9052734-8.1601562,86.9052734-46.1044922
			C1772.2194824,756.3807983,1760.3874512,749.4452515,1744.4748535,749.4452515z"/>
		<path class="st1" d="M1934.5993652,757.1972046c-4.4882812-1.2236328-9.3837891-2.0400391-14.6875-2.0400391
			c-21.2167969,0-41.2089844,21.2158203-48.9609375,55.4882812l-25.296875,119.1376953h-29.7841797l42.4326172-198.2900391
			h25.296875l-2.0400391,28.9677734c13.0556641-21.6240234,31.4160156-32.6396484,55.0800781-32.6396484
			c3.671875,0,10.6083984,0.8154297,13.8720703,2.4472656L1934.5993652,757.1972046z"/>
		<path class="st1" d="M2085.1520996,755.9735718c-11.0166016-4.4882812-23.2558594-4.8964844-35.0888672-4.8964844
			c-51.4082031,0-70.1767578,69.7685547-70.1767578,109.3457031c0,28.1523438,9.7929688,49.7763672,42.0244141,49.7763672
			c11.4248047,0,21.2167969-2.0400391,32.2324219-6.5283203l2.0400391,23.2558594
			c-12.6474609,5.3046875-31.4160156,6.5283203-45.6962891,6.5283203c-44.0644531,0-61.6083984-33.0478516-61.6083984-71.8085938
			c0-65.6884766,36.3125-133.8251953,107.7128906-133.8251953c14.2802734,0,26.9287109,0,39.5771484,6.1191406
			L2085.1520996,755.9735718z"/>
		<path class="st1" d="M2136.9655762,929.7831421h-29.7851562l37.1289062-175.0341797h-26.9287109l4.8964844-23.2558594h56.7128906
			L2136.9655762,929.7831421z M2171.6452637,684.9804077c-9.3837891,0-16.3193359-6.5283203-16.3193359-15.9121094
			c0-12.6484375,13.0556641-24.0722656,24.8876953-24.0722656c9.3837891,0,16.7285156,6.5283203,16.7285156,15.9121094
			C2196.9421387,673.5565796,2184.2937012,684.9804077,2171.6452637,684.9804077z"/>
		<path class="st1" d="M2308.7302246,755.1571655h-38.7607422l-25.7041016,120.7695312
			c-1.2236328,6.1201172-2.0400391,11.4238281-2.0400391,16.3203125c0,10.2001953,2.4482422,17.9521484,15.0957031,17.9521484
			c6.9365234,0,12.2402344-1.2246094,18.7685547-3.2646484l-1.2236328,20.8085938
			c-12.6484375,4.4882812-17.1367188,5.3037109-30.6005859,5.3037109c-22.4404297,0-33.0488281-9.3837891-33.0488281-31.8242188
			c0-6.9355469,0.8164062-14.2802734,2.4482422-21.2158203l26.5205078-124.8496094h-27.7441406l4.8955078-23.6640625h27.7451172
			l9.7919922-45.6972656l32.6396484-13.0556641l-12.6474609,58.7529297h38.7597656L2308.7302246,755.1571655z"/>
		<path class="st1" d="M2370.3327637,950.1835327c-22.8476562,42.4326172-42.4326172,60.3847656-68.1367188,60.3847656
			c-7.7519531,0-13.8720703,0-21.6240234-2.8564453l8.9755859-22.4404297
			c4.4882812,1.6328125,8.9765625,2.0400391,13.4648438,2.0400391c12.6474609,0,25.2958984-11.8320312,36.3125-33.4560547
			l11.8320312-24.0722656l-18.7685547-198.2900391h32.2324219l9.3837891,160.3457031l80.7851562-160.3457031h31.4169922
			L2370.3327637,950.1835327z"/>
	</g>
</g>
</svg>
