<?xml version="1.0" encoding="UTF-8"?>
<svg width="299pt" height="155pt" version="1.1" viewBox="0 0 299 155" xmlns="http://www.w3.org/2000/svg">
<g>
<path d="m86.883 0h1.668c-0.39453 0.54688-0.72656 1.1602-1.2422 1.6055-0.55078 0.14453-1.1328 0.15234-1.6836 0.32031-1.6992 0.51172-3.082 1.9414-3.5469 3.6602-0.59766 2.0859-0.92188 4.2344-1.3086 6.3672 1.6445 0.019531 3.293-0.035156 4.9414 0.03125-0.39453 0.60938-0.80078 1.2031-1.2266 1.7852-1.2461 0.074219-2.5898 0.30859-3.4922 1.2539-1.0273 0.99609-1.1875 2.4805-1.4102 3.8164-0.55859 3.0781-1.0742 6.1602-1.7461 9.2148-0.5625 2.4844-1.332 5.0352-3.0352 6.9883-2.5273 2.9141-6.543 4.2969-10.328 3.9609 0.35938-0.5625 0.73438-1.1172 1.1289-1.6602 1.457-0.011719 2.8555-0.72656 3.7656-1.8633 1.2227-1.4336 1.4336-3.3789 1.8789-5.1367 1-4.9766 1.8125-9.9883 2.7344-14.98 0.48047-2.6484 0.89844-5.3242 1.7812-7.875 0.87891-2.5586 2.7422-4.8047 5.1875-5.9844 1.8516-0.91406 3.9062-1.2461 5.9336-1.5039z" fill="#81025f"/>
<path d="m26.418 13.254c2.1562-1.043 4.5703-1.2891 6.9141-1.543 2.5547-0.089844 5.1758-0.12891 7.6367 0.64844 1.4453 0.44922 2.7188 1.7617 2.6797 3.3516 0.13281 1.875-0.61719 3.9023-2.2461 4.9375-1.9961 1.2852-4.4375 1.4883-6.7461 1.6289-2.2422 0.24219-4.5 0.10156-6.7422-0.078125-0.22266 1.3711 0.058594 3.1562 1.4727 3.7773 1.3984 0.54297 2.9414 0.30078 4.4023 0.50391 2.1836-0.09375 4.375-0.19922 6.543-0.5-0.47656 0.66016-0.92188 1.3477-1.4609 1.9531-3.7266 0.76953-7.5742 0.58203-11.359 0.54297-1.4258-0.17187-2.9766-0.042968-4.2344-0.85547-1.0977-0.64844-1.625-1.9141-1.7578-3.1328-0.18359-2.4453 0.3125-4.8945 1.1289-7.1914 0.62891-1.7969 2.0547-3.2539 3.7695-4.043m3.8906 1.8984c-1.2852 1.375-1.8359 3.2617-2.168 5.0742 2.3242 0.16797 4.7188 0.20703 6.9766-0.45312 1.6953-0.48438 2.9609-2.2734 2.7539-4.043-0.074219-0.98828-0.83203-1.9219-1.8359-2.0508-1.9844-0.53906-4.2422 0.046874-5.7266 1.4727z" fill="#81025f"/>
<path d="m91.188 12.691c3.1445-0.96484 6.4805-1.1406 9.75-0.96875 1.7891 0.23828 3.8086 0.36328 5.1562 1.7266 1.1016 1.125 1.0859 2.8672 0.69922 4.293-0.26172 1.0859-0.90625 2.0625-1.7969 2.7266-1.25 0.92188-2.7852 1.3477-4.2969 1.5508-3.125 0.42969-6.293 0.49609-9.4336 0.17969-0.19141 1.3711 0.054687 3.1562 1.4688 3.7812 1.3906 0.53516 2.9219 0.29688 4.3711 0.5 2.1992-0.089844 4.3984-0.19922 6.5781-0.5-0.47656 0.67188-0.92969 1.3672-1.4883 1.9805-3.7344 0.71484-7.5625 0.57031-11.348 0.51172-1.4297-0.16406-2.9844-0.054687-4.2422-0.86328-1.1992-0.75391-1.7227-2.2227-1.7695-3.582-0.089844-2.457 0.44531-4.9219 1.3633-7.1953 0.875-2.0938 2.8672-3.5 4.9883-4.1406m3.0859 1.9375c-1.7539 1.3086-2.375 3.5508-2.7891 5.5938 1.7969 0.15234 3.6055 0.14453 5.3984-0.082031 1.1094-0.20312 2.3125-0.44141 3.1445-1.2695 0.73828-0.77734 1.3047-1.8164 1.1914-2.918 0.039062-0.85156-0.45312-1.6562-1.1797-2.0625-1.8789-0.77344-4.1172-0.41016-5.7656 0.73828z" fill="#81025f"/>
<path d="m11.301 12.262c2.6953-0.51953 5.4453-0.33203 8.1758-0.35938 1.4961-0.019532 2.9883 0.12109 4.4805 0.24219-0.46484 0.67188-0.875 1.3789-1.3672 2.0312-2.2227-0.078125-4.457-0.16797-6.6797 0.011719-1.1875 0.14453-2.5234 0.375-3.3203 1.3672-0.91016 1.125-0.97266 2.6445-1.2188 4.0117-0.48047 2.8789-0.82422 5.7773-1.4023 8.6367-2.1992 0.070313-4.4062 0.023437-6.6094 0.019531 0.65234-3.4961 1.1836-7.0078 1.8164-10.508 0.23438-1.2891 0.49609-2.6914 1.4922-3.6289 1.2305-1.2031 3.0117-1.5078 4.6328-1.8242z" fill="#81025f"/>
<path d="m48.551 12.016c4.9219-0.011719 9.8477 0 14.766-0.007813 1.4531 0.015626 2.9883 0.39453 4.0586 1.4336 1.1328 1.0703 1.4648 2.7695 1.1875 4.2617-0.63281 3.4844-1.1836 6.9883-1.9219 10.453-2.0391 0.042969-4.082 0.007812-6.1211 0.019531 0.60156-3.3438 1.2734-6.6758 1.8281-10.027 0.16797-0.89844 0.16016-1.8906-0.33984-2.6836-0.55078-0.94922-1.6719-1.4141-2.7305-1.4297-1.6172-0.019531-3.2383 0.019532-4.8555-0.015625-0.90625 4.7031-1.7891 9.4141-2.5234 14.145-2.0273 0.023438-4.0547 0.007813-6.0859 0.007813 0.79688-5.4023 1.8398-10.77 2.7383-16.156z" fill="#81025f"/>
<path d="m271.47 147.25c8.1914-2.0586 16-5.918 22.301-11.605 1.75 1.957 3.3633 4.0508 5.2383 5.8828v0.085937c-6.4297 5.4336-14.211 9.1406-22.34 11.188-4.8672 1.2617-9.8789 1.8789-14.891 2.1133h-5.4219c-5.75-0.31641-11.492-1.1289-17.023-2.7578-8.293-2.3867-16.156-6.5234-22.434-12.5 0.58594-0.68359 1.1875-1.3516 1.7812-2.0273 7.2773 5.8477 16.219 9.4023 25.395 10.828 9.0859 1.375 18.461 1.0078 27.395-1.207z" fill="#81025f"/>
<path d="m177.04 28.109c5.5703 0.027344 11.145 0 16.715 0.011719-0.003906 10.012-0.015624 20.023 0.039063 30.031v39.516c-0.015625 3.8125 0.046875 7.6289-0.046875 11.441-0.019531 0.75391 0.10547 1.5508 0.55859 2.1758 0.58203 0.83203 1.6406 1.1914 2.6211 1.1914 2.3047 0.015626 4.6055-0.019531 6.9102 0.015626-0.019532 4.7188-0.019532 9.4375 0 14.156-4.0117 0.074218-8.0312 0.003906-12.047 0.035156-3.9492 0.089844-7.8789-1.5938-10.605-4.4453-2.707-2.7383-4.2188-6.5898-4.1602-10.438 0.015625-27.898-0.023438-55.797 0.015625-83.691z" fill="#0dcfc8"/>
<path d="m16.246 56.059c5.4102-3.6523 11.953-5.5039 18.461-5.4375 5.8398-0.007813 11.785 1.5938 16.523 5.0977 2.1836 1.6055 4.1328 3.543 5.6914 5.7695 0.42188 0.015625 0.84375 0.027344 1.2656 0.039063v-9.043c5.582 0.007813 11.164-0.046875 16.738 0.027344-0.019531 19.016-0.003906 38.027-0.003906 57.043-0.035156 1.3359 0.96094 2.6055 2.2891 2.8281 1.4258 0.21094 2.875 0.042969 4.3086 0.097657 0 4.7305 0.011719 9.4648-0.007812 14.195-4.3438 0.007813-8.6836-0.003906-13.027 0.007813-2.6992-0.019532-5.4531-1.0352-7.3203-3.0352-1.6367-1.6914-2.5469-3.9766-2.8555-6.293-0.39844 0.003906-0.79688 0.007812-1.1992 0.011719-2.0859 3.3398-5.0586 6.1016-8.5078 7.9805-4.2383 2.3086-9.1172 3.2539-13.91 3.1836-8.0234 0.039062-16.031-2.9648-22.008-8.3477-5.2852-4.6875-8.9883-11.031-10.91-17.816-0.84766-2.8555-1.2734-5.8125-1.6289-8.7695 0.09375-2.5977 0.16797-5.2188-0.019531-7.8203 0.44141-4.2891 1.2383-8.5781 2.8164-12.609 2.5938-6.8594 7.1719-13.043 13.305-17.109m18.793 10.785c-1.8867 0.24219-3.7461 0.73828-5.4922 1.5-4.1484 1.7812-7.5781 5.0977-9.6562 9.1055-2.6016 4.9258-3.3125 10.707-2.6055 16.191 0.63672 5.0117 2.8086 9.9219 6.5391 13.379 6.918 6.5 18.531 7.1758 26.113 1.457 4.3906-3.2578 7.125-8.3984 8.082-13.73 0.85938-4.918 0.51562-10.086-1.1992-14.785-1.5312-4.2227-4.4297-7.9805-8.2773-10.32-4-2.4727-8.8633-3.3789-13.504-2.7969z" fill="#0dcfc8"/>
<path d="m251.64 50.867c8.8398-0.9375 18.07 0.73437 25.707 5.3984 6.3555 3.8359 11.469 9.6758 14.488 16.469 3.7109 8.3203 4.4258 17.871 2.3555 26.719-1.9102 8.0898-6.4961 15.559-13.023 20.715-6.9375 5.5664-15.863 8.3945-24.707 8.3633-7.6602 0.10156-15.406-1.8711-21.898-5.9961-4.0898-2.5781-7.6523-5.9922-10.41-9.9648-3.5312-5.0664-5.7383-11.016-6.543-17.133-0.95312-7.25-0.15625-14.777 2.6406-21.551 2.7383-6.6875 7.457-12.559 13.453-16.586 5.3086-3.625 11.566-5.7656 17.938-6.4336m4.1992 15.672c-4.2344 0.054688-8.4961 1.2422-12.012 3.6445-4.6719 3.1055-7.8359 8.1992-9 13.656-1.3125 6.1992-0.55078 12.965 2.6875 18.465 2.3555 4.0273 6.1016 7.2188 10.465 8.8555 4.8281 1.8242 10.258 1.9414 15.188 0.44922 3.8633-1.1953 7.3945-3.5 9.9531-6.6484 2.6328-3.1641 4.2617-7.0977 4.8906-11.152 0.78516-5.0664 0.17578-10.398-2.0352-15.043-1.6445-3.4961-4.2461-6.5469-7.4766-8.668-3.7148-2.4727-8.2188-3.6367-12.66-3.5586z" fill="#0dcfc8"/>
<path d="m89.453 52.492c5.6914-0.035157 11.387-0.003907 17.078-0.019532 0.36719-0.082031 0.58203 0.13672 0.63281 0.48047 6.0508 19.281 12.145 38.543 18.172 57.828 0.41016-0.035156 0.89453 0.13672 1.2617-0.09375 5.8906-18.816 11.75-37.641 17.629-56.461 0.18359-0.56641 0.31641-1.1562 0.55859-1.707 5.9805-0.09375 11.973-0.023437 17.961-0.03125-5.9219 17.547-11.938 35.062-17.887 52.598-2.4727 7.1953-4.8828 14.414-7.3828 21.598-7.5508-0.023438-15.098 0.019531-22.648-0.019532-8.4297-24.734-16.938-49.441-25.375-74.172z" fill="#0dcfc8"/>
</g>
</svg>
