<svg xmlns="http://www.w3.org/2000/svg" viewBox="37.8 8.5 117 117" width="2500" height="2500">
  <g fill-rule="evenodd" clip-rule="evenodd">
    <path d="M149.568 91.369a58.732 58.732 0 0 1-19.789 23.652l-23.652-23.652h43.441zM43.188 42.625a58.724 58.724 0 0 1 19.788-23.653l23.653 23.653H43.188zm-5.303 24.372c0-1.641.067-3.267.2-4.874h97.288L83.237 9.986a58.646 58.646 0 0 1 13.141-1.482c32.305 0 58.493 26.188 58.493 58.493 0 1.642-.068 3.267-.201 4.875H57.382l52.137 52.136a58.666 58.666 0 0 1-13.141 1.482c-32.304 0-58.493-26.187-58.493-58.493z" fill="#3b95d4"/>
  </g>
</svg>

